<?xml version="1.0" standalone="no"?>
<!DOCTYPE svg PUBLIC "-//W3C//DTD SVG 20010904//EN"
 "http://www.w3.org/TR/2001/REC-SVG-20010904/DTD/svg10.dtd">
<svg version="1.0" xmlns="http://www.w3.org/2000/svg"
 width="1018.000000pt" height="1018.000000pt" viewBox="0 0 1018.000000 1018.000000"
 preserveAspectRatio="xMidYMid meet">
<metadata>
Created by potrace 1.11, written by Peter Selinger 2001-2013
</metadata>
<g transform="translate(0.000000,1018.000000) scale(0.100000,-0.100000)"
fill="#000000" stroke="none">
<path d="M4729 9206 c-2 -2 -47 -7 -99 -11 -192 -14 -316 -29 -570 -70 -71
-12 -309 -75 -373 -99 -370 -139 -524 -340 -562 -732 -4 -38 -8 -805 -6 -911
l1 -23 982 -2 983 -3 0 -119 c0 -72 -4 -120 -10 -122 -5 -2 -653 -5 -1440 -7
-786 -2 -1445 -6 -1462 -10 -350 -71 -600 -220 -787 -472 -155 -206 -234 -438
-321 -930 -2 -16 -7 -39 -9 -50 -2 -11 -7 -49 -11 -85 -4 -36 -9 -74 -11 -85
-9 -48 -18 -232 -18 -375 1 -191 15 -361 45 -545 14 -82 55 -285 74 -370 9
-38 18 -77 20 -85 85 -362 275 -673 504 -824 100 -65 214 -117 288 -131 15 -3
39 -7 53 -10 67 -14 154 -17 498 -19 366 -1 372 -1 373 19 0 11 2 245 3 520 2
432 5 511 20 580 28 128 44 172 106 300 166 342 481 590 858 676 97 23 100 23
1166 25 587 1 1101 4 1141 8 376 33 710 304 834 679 50 148 50 153 50 1252 0
979 0 1034 -19 1117 -79 361 -353 648 -744 783 -86 29 -86 29 -191 50 -108 21
-281 44 -450 60 -33 3 -80 8 -105 11 -52 6 -806 15 -811 10z m-594 -635 c227
-112 281 -419 105 -598 -236 -241 -642 -63 -629 276 10 266 289 437 524 322z"/>
<path d="M7294 6618 c-1 -410 -4 -509 -17 -585 -30 -166 -100 -339 -190 -474
-63 -93 -79 -112 -182 -214 -139 -138 -302 -238 -485 -298 -170 -56 -146 -55
-1310 -57 -591 -1 -1088 -3 -1105 -5 -322 -35 -607 -233 -772 -535 -54 -99
-95 -233 -108 -350 -9 -75 -9 -2011 0 -2080 32 -268 179 -486 445 -662 100
-67 291 -159 420 -203 233 -80 536 -147 790 -173 139 -14 578 -7 700 12 50 8
106 17 135 21 38 5 83 14 115 21 14 3 36 8 50 11 14 2 45 9 70 14 25 6 52 12
61 14 51 10 303 89 354 110 445 184 660 385 756 707 21 69 23 95 27 524 l4
452 -944 0 c-519 1 -961 1 -983 1 l-41 1 1 123 0 123 1485 0 c817 0 1521 3
1565 7 309 26 527 193 699 535 100 199 229 566 262 746 2 16 7 32 9 35 2 4 6
26 10 51 4 25 8 47 10 50 2 3 6 34 10 70 4 36 9 67 10 70 8 13 19 226 19 365
0 133 -10 317 -19 364 -2 9 -6 48 -10 86 -3 39 -10 88 -15 110 -5 22 -11 60
-15 85 -3 25 -8 52 -10 60 -2 8 -7 30 -10 48 -9 52 -35 173 -50 232 -8 30 -16
67 -19 82 -2 15 -16 67 -31 115 -87 289 -198 498 -343 641 -110 108 -218 171
-369 214 -74 20 -102 22 -528 26 l-450 4 -1 -494z m-1014 -4263 c61 -13 124
-51 173 -104 160 -171 131 -436 -61 -567 -215 -148 -515 -21 -562 238 -15 83
-5 161 30 234 77 159 243 238 420 199z"/>
</g>
</svg>
